<svg width="56" height="56" viewBox="0 0 56 56" fill="none" xmlns="http://www.w3.org/2000/svg">
<g clip-path="url(#clip0_3885_2)">
<path d="M56 0H0V56H56V0Z" fill="#98AC3B"/>
<path d="M5.27557 41V14.8182H10.8111V25.6207H22.0483V14.8182H27.571V41H22.0483V30.1847H10.8111V41H5.27557ZM32.1349 41V14.8182H42.4645C44.4418 14.8182 46.1293 15.1719 47.527 15.8793C48.9332 16.5781 50.0028 17.571 50.7358 18.858C51.4773 20.1364 51.848 21.6406 51.848 23.3707C51.848 25.1094 51.473 26.6051 50.723 27.858C49.973 29.1023 48.8864 30.0568 47.4631 30.7216C46.0483 31.3864 44.3352 31.7188 42.3239 31.7188H35.4077V27.2699H41.429C42.4858 27.2699 43.3636 27.125 44.0625 26.8352C44.7614 26.5455 45.2813 26.1108 45.6222 25.5312C45.9716 24.9517 46.1463 24.2315 46.1463 23.3707C46.1463 22.5014 45.9716 21.7685 45.6222 21.1719C45.2813 20.5753 44.7571 20.1236 44.0497 19.8168C43.3509 19.5014 42.4688 19.3438 41.4034 19.3438H37.6705V41H32.1349ZM46.2741 29.0852L52.7812 41H46.6705L40.304 29.0852H46.2741Z" fill="#333333"/>
</g>
<defs>
<clipPath id="clip0_3885_2">
<rect width="56" height="56" fill="white"/>
</clipPath>
</defs>
</svg>
